<?xml version="1.0" encoding="UTF-8"?>
<svg id="Layer_2" data-name="Layer 2" xmlns="http://www.w3.org/2000/svg" viewBox="0 0 241.97 29">
  <defs>
    <style>
      .cls-1 {
        fill: #03c75a;
      }

      .cls-1, .cls-2 {
        stroke-width: 0px;
      }

      .cls-2 {
        fill: #fff;
      }
    </style>
  </defs>
  <g id="Layer_1-2" data-name="Layer 1">
    <g>
      <path class="cls-2" d="M9.75,6.17h4.75l-3.1,17.5H3.1L0,6.17h4.75l2.5,13.83,2.5-13.83Z"/>
      <path class="cls-2" d="M16.25,23.67v-15.17h-.75l.5-2.33h5v17.5h-4.75Z"/>
      <path class="cls-2" d="M36,16.07v5.38c0,.7-.43,1.26-1.3,1.69-.87.43-2,.64-3.4.64h-3.6c-1.4,0-2.53-.21-3.4-.64-.87-.42-1.3-.99-1.3-1.69v-13.05c0-.7.43-1.26,1.3-1.69.87-.43,2-.64,3.4-.64h3.6c1.4,0,2.53.21,3.4.64.87.42,1.3.99,1.3,1.69v5.6l-4.75-.25v-5.23c0-.08-.08-.12-.25-.12h-3c-.17,0-.25.04-.25.12v12.8c0,.08.08.12.25.12h3c.17,0,.25-.04.25-.12v-5.25h4.75Z"/>
      <path class="cls-2" d="M37.5,8.49v-2.33h13.75v2.33h-4.5v15.17h-4.75v-15.17h-4.5Z"/>
      <path class="cls-2" d="M65.75,21.44c0,.7-.43,1.26-1.3,1.69-.87.43-2,.64-3.4.64h-3.6c-1.4,0-2.53-.21-3.4-.64-.87-.42-1.3-.99-1.3-1.69v-13.05c0-.7.43-1.26,1.3-1.69.87-.43,2-.64,3.4-.64h3.6c1.4,0,2.53.21,3.4.64.87.42,1.3.99,1.3,1.69v13.05ZM57.75,8.39c-.17,0-.25.04-.25.12v12.8c0,.08.08.12.25.12h3c.17,0,.25-.04.25-.12v-12.8c0-.08-.08-.12-.25-.12h-3Z"/>
      <path class="cls-2" d="M67.25,8.49l.5-2.33h7.9c1.4,0,2.53.21,3.4.64.87.42,1.3.99,1.3,1.69v7.82c0,.37-.15.7-.45.99-.3.29-.7.54-1.2.74l3.2,5.62h-4.8l-2.85-5.02h-1.5v5.02h-4.75v-15.17h-.75ZM75.35,8.49h-2.6v7.82h2.6c.17,0,.25-.04.25-.12v-7.57c0-.08-.08-.12-.25-.12Z"/>
    </g>
    <g>
      <path class="cls-2" d="M112.45,9.84c-.91-1.15-1.99-2.05-3.24-2.72s-2.49-1-3.72-1c-1.07,0-2.07.21-3,.62-.93.41-1.75.99-2.44,1.72-.69.73-1.23,1.6-1.6,2.6-.37,1-.56,2.09-.56,3.26s.19,2.26.56,3.26c.37,1,.91,1.87,1.6,2.62.69.75,1.51,1.33,2.44,1.74.93.41,1.93.62,3,.62,1.17,0,2.38-.3,3.62-.9,1.24-.6,2.35-1.41,3.34-2.42l4.28,4.52c-1.01,1.07-2.16,1.99-3.44,2.78-1.28.79-2.62,1.39-4.02,1.82-1.4.43-2.79.64-4.18.64-2.11,0-4.05-.37-5.84-1.1-1.79-.73-3.34-1.76-4.66-3.08-1.32-1.32-2.35-2.87-3.1-4.64-.75-1.77-1.12-3.7-1.12-5.78s.37-3.95,1.12-5.7c.75-1.75,1.8-3.27,3.16-4.58,1.36-1.31,2.95-2.32,4.78-3.04,1.83-.72,3.81-1.08,5.94-1.08,1.39,0,2.77.19,4.16.58,1.39.39,2.69.94,3.92,1.66,1.23.72,2.31,1.57,3.24,2.56l-4.24,5.04Z"/>
      <path class="cls-2" d="M119.85.44h7.32v11.48h11.32V.44h7.32v28.04h-7.32v-10.8h-11.32v10.8h-7.32V.44Z"/>
      <path class="cls-2" d="M160.37.44h7.52l11.76,28.04h-7.8l-7.92-20.72-8.08,20.72h-7.52L160.37.44ZM155.53,17.92h16.36v5.52h-16.36v-5.52Z"/>
      <path class="cls-2" d="M194.77.44c3.73,0,6.61.86,8.64,2.58,2.03,1.72,3.04,4.14,3.04,7.26,0,3.28-1.01,5.83-3.04,7.66-2.03,1.83-4.91,2.74-8.64,2.74h-5.28v7.8h-7.32V.44h12.6ZM194.77,14.92c1.49,0,2.65-.37,3.48-1.12.83-.75,1.24-1.85,1.24-3.32s-.41-2.48-1.24-3.2c-.83-.72-1.99-1.08-3.48-1.08h-5.28v8.72h5.28ZM193.49,18h7.12l6.68,10.48h-8.28l-5.52-10.48Z"/>
      <path class="cls-2" d="M208.69.44h24.04v5.92h-8.4v22.12h-7.32V6.36h-8.32V.44Z"/>
    </g>
    <rect class="cls-1" x="235.58" y=".19" width="6.39" height="6.39"/>
  </g>
</svg>