<svg xmlns="http://www.w3.org/2000/svg" width="1125.55" height="475.923" viewBox="0 0 1125.55 475.923">
  <defs>
    <style>
      .cls-1 {
        fill: #7de314;
      }

      .cls-2 {
        fill: #4f7bac;
      }

      .cls-3 {
        fill: #14a0c0;
      }

      .cls-4 {
        fill: #01cc9b;
      }

      .cls-5 {
        fill: #5059ab;
      }

      .cls-6 {
        fill: none;
      }
    </style>
  </defs>
  <g id="차트" transform="translate(0.003 23)">
    <path id="패스_12" data-name="패스 12" class="cls-1" d="M232.788,132.73a40.363,40.363,0,0,0-12.6-10.4c-30.09-16.1-55.173,13.314-70.064,35.7C111.247,216.476,49.969,292.924,0,301.013c0,0,26.343,13.553,57.816-1.365,37.541-17.369,64.606-59.742,93.809-97.785,8.855-11.534,16.757-23.625,25.022-35.566,2.814-4.069,6.9-10.062,11.759-14.721a29.976,29.976,0,0,1,7.236-5.271c19.439-14.7,37.146-13.575,37.148-13.575" transform="translate(-0.002 146.27)"/>
    <path id="패스_13" data-name="패스 13" class="cls-2" d="M148.829,225.141a21.759,21.759,0,0,1-10.588-3.128c-11.881-7.436-10.323-24.953-9.633-36.949,1.153-20.155,1.833-44.943-11.213-61.183,0,0-17.712-1.129-37.151,13.575a13.859,13.859,0,0,1,9.206-1.429c22.293,4.8,11.271,51.1,12.315,65.752,1.967,27.6,19.665,50.27,49,49.953,28.866-.315,49.973-19.911,62.638-44.236-28.042,25.585-64.567,17.644-64.574,17.644" transform="translate(115.395 155.117)"/>
    <path id="패스_14" data-name="패스 14" class="cls-3" d="M518.084,69.318a71.258,71.258,0,0,0-19.563-22.079c-23.783-17.149-54.968-11.52-77.093,5.544-24.083,18.573-36.932,47.981-50.894,74.131q-26.133,48.928-52.264,97.861-12.544,23.486-25.085,46.974c-7.309,13.638-14.594,27.835-25.409,39.087-7.521,7.829-17.332,13.307-26.97,15.169,6.7.675,35.988,2.86,55.573-8.15A204.62,204.62,0,0,0,311.1,294.7c34.815-62.741,65.617-127.9,101.732-189.9,7.943-13.638,22.4-31.643,38.643-38.865l-.017,0,.017,0a32.963,32.963,0,0,1,16.671-3.062c14.16-1.731,34.554-2.077,49.941,6.441" transform="translate(346.287 29.984)"/>
    <path id="패스_15" data-name="패스 15" class="cls-2" d="M450.306,170.043a46.718,46.718,0,0,1-19.968-5.817c-22.493-12.149-25.951-44.233-30.8-66.517-3.189-14.631-7.782-29.983-15.54-43.161-15.389-8.519-35.781-8.172-49.943-6.441,6.21.612,12.451,3.345,18.488,8.979,20.665,19.278,20.821,52.879,28.386,78.229,8.8,29.5,27.221,55.739,59.978,59.469a74.777,74.777,0,0,0,14.931.193c6.717.124,26.406-4.023,34.649-10.337-24.814,2.4-38.792-12.5-40.177-14.6" transform="translate(480.379 44.752)"/>
    <path id="패스_16" data-name="패스 16" class="cls-2" d="M433.514,87.146c-16.7,16.228-34.025,26.258-51.779,25.331a36.942,36.942,0,0,0,29.4,15.745c10.576-8.1,20.053-21.652,22.376-41.076" transform="translate(548.951 102.318)"/>
    <path id="패스_17" data-name="패스 17" class="cls-2" d="M297.629,269.931c-15.116,2.918-29.805-3.089-34.542-23.081-3.018-12.731-2.384-26.282-2.621-39.265q-.512-27.991-1.019-55.98c-.41-22.52.266-47.778-9.274-68.88-18.127-8.716-39.187-7.2-48.883-5.837,8.921-.761,16.8,2.789,22.508,12.885,13.348,23.593,8.884,57.5,9.355,83.362.307,16.886.439,33.784.931,50.665.424,14.458,1.619,29.237,7.512,42.617,11.729,26.626,40.74,36.829,67.863,28.654,18.59-5.608,32.528-18.273,43.746-33.291-19.585,11.01-48.878,8.826-55.575,8.15" transform="translate(289.463 86.055)"/>
    <path id="패스_18" data-name="패스 18" class="cls-4" d="M383.789,97.518a68.47,68.47,0,0,0-4.742-8.762C362.9,63.6,333.328,59.96,307.756,72.725c-21.24,10.6-41.13,28.14-55.865,46.554-31.3,39.114-46.057,62.653-68.819,100.623-7.814,13.034-21.991,39.411-28.569,53.113-6.141,12.792-12.522,22.4-25.066,30.122-5.881,3.623-13.7,6.219-21.062,5.859.007,0,36.532,7.941,64.574-17.647,23.6-45.3,48.529-91.673,79.868-132.305,12.875-16.7,53.04-64.886,82.089-67.363,9.7-1.368,30.754-2.879,48.883,5.837" transform="translate(155.848 71.266)"/>
    <path id="패스_19" data-name="패스 19" class="cls-2" d="M103,126.1A12.429,12.429,0,1,1,90.57,113.666,12.431,12.431,0,0,1,103,126.1" transform="translate(112.369 140.455)"/>
    <path id="패스_21" data-name="패스 21" class="cls-2" d="M221.05,73.259A12.429,12.429,0,1,1,208.621,60.83,12.431,12.431,0,0,1,221.05,73.259" transform="translate(282.133 64.475)"/>
    <path id="패스_23" data-name="패스 23" class="cls-2" d="M353.809,45.449A12.428,12.428,0,1,1,341.382,33.02a12.429,12.429,0,0,1,12.427,12.429" transform="translate(473.049 24.484)"/>
    <path id="패스_25" data-name="패스 25" class="cls-5" d="M515.163,102.116a106.42,106.42,0,0,0-22.5-21.17c-21.75-14.843-44.187-1.1-58.589,16.647-14.618,18.02-28.008,33.413-53.483,32.623,0,0,15.465,21.074,42.968,14.836,6.495-4.832,12.424-11.2,18.632-18.863,5.932-7.321,11.21-15.742,18.529-21.811,5.764-4.779,10.6-5.771,15.213-4.291,7.516-2.67,23.534-6.446,39.23,2.028" transform="translate(547.305 84.338)"/>
    <path id="패스_26" data-name="패스 26" class="cls-2" d="M522.006,165.468c-11.832-.748-21.028-8.494-27.491-15.1-15.959-16.315-20.709-43.034-35.588-61.38-15.7-8.475-31.714-4.7-39.23-2.028,4.33,1.39,8.475,4.954,13.019,9.689,15.716,16.369,22.708,33.2,33.216,53.522,6.375,11.027,24.99,31.287,56.075,15.3" transform="translate(603.541 97.465)"/>
    <path id="패스_27" data-name="패스 27" class="cls-2" d="M438.42,82.712a12.429,12.429,0,1,1-12.429-12.429A12.431,12.431,0,0,1,438.42,82.712" transform="translate(594.721 78.068)"/>
    <path id="패스_29" data-name="패스 29" class="cls-1" d="M88.608,75.52h4.679l10.352,27.223H98.195l-2.531-6.787H86.156l-2.492,6.787H78.22Zm6.1,16.718-3.757-10.7-3.911,10.7Z" transform="translate(112.484 140.6)"/>
    <path id="패스_30" data-name="패스 30" class="cls-4" d="M219.288,47.159a6.173,6.173,0,0,1-2.589,5.215,8.912,8.912,0,0,1-2.8,1.343,12.157,12.157,0,0,1-3.394.458H197.355V26.952h14.572a5.369,5.369,0,0,1,2.567.614,6.476,6.476,0,0,1,1.955,1.59,7.327,7.327,0,0,1,1.248,2.226,7.567,7.567,0,0,1,.439,2.511,7.441,7.441,0,0,1-.995,3.738,6.088,6.088,0,0,1-2.916,2.589,7.024,7.024,0,0,1,3.7,2.472,7.171,7.171,0,0,1,1.36,4.466M202.646,31.479V38.34H209.7a3.14,3.14,0,0,0,2.28-.919,3.391,3.391,0,0,0,.939-2.531,3.491,3.491,0,0,0-.861-2.492,2.814,2.814,0,0,0-2.128-.919Zm11.315,14.684a3.941,3.941,0,0,0-.254-1.4,3.875,3.875,0,0,0-.67-1.17,3.116,3.116,0,0,0-.995-.787,2.815,2.815,0,0,0-1.268-.285h-8.128v7.168h7.863a3.421,3.421,0,0,0,1.36-.268,3.22,3.22,0,0,0,1.092-.748,3.5,3.5,0,0,0,.729-1.131,3.541,3.541,0,0,0,.271-1.377" transform="translate(283.805 58.758)"/>
    <path id="패스_31" data-name="패스 31" class="cls-3" d="M328.521,13.569a14.007,14.007,0,0,1,.9-4.925,13.473,13.473,0,0,1,2.623-4.354,13.323,13.323,0,0,1,4.22-3.1A12.987,12.987,0,0,1,341.942,0a12.389,12.389,0,0,1,6.5,1.643,10.558,10.558,0,0,1,4.084,4.3l-4.064,2.8a6.892,6.892,0,0,0-1.3-1.933,6.482,6.482,0,0,0-1.651-1.246,7.29,7.29,0,0,0-1.841-.673,8.676,8.676,0,0,0-1.88-.21,7.127,7.127,0,0,0-3.467.8,7.505,7.505,0,0,0-2.455,2.087,9.229,9.229,0,0,0-1.477,2.913,10.987,10.987,0,0,0-.5,3.243,10.552,10.552,0,0,0,.573,3.467,9.129,9.129,0,0,0,1.633,2.933,8.013,8.013,0,0,0,2.528,2.033,6.931,6.931,0,0,0,3.238.768,8.549,8.549,0,0,0,1.921-.232,7.217,7.217,0,0,0,1.9-.729,7,7,0,0,0,1.665-1.282,5.89,5.89,0,0,0,1.231-1.9l4.33,2.489a8.213,8.213,0,0,1-1.86,2.706,12.075,12.075,0,0,1-2.723,1.972,13.754,13.754,0,0,1-3.238,1.229,14.392,14.392,0,0,1-3.374.419,11.565,11.565,0,0,1-5.327-1.224,13.862,13.862,0,0,1-4.162-3.206,14.843,14.843,0,0,1-2.723-4.481,14.03,14.03,0,0,1-.978-5.122" transform="translate(472.428 20)"/>
    <path id="패스_32" data-name="패스 32" class="cls-5" d="M413.807,64.548V37.325H423.7a14.747,14.747,0,0,1,5.844,1.075,11.978,11.978,0,0,1,4.2,2.913,12.1,12.1,0,0,1,2.531,4.313,16.276,16.276,0,0,1,.841,5.273,15.912,15.912,0,0,1-.939,5.615,11.951,11.951,0,0,1-2.7,4.293,12.1,12.1,0,0,1-4.235,2.762,14.933,14.933,0,0,1-5.539.978ZM431.788,50.9a11.59,11.59,0,0,0-.536-3.606,8.051,8.051,0,0,0-1.57-2.838,7.016,7.016,0,0,0-2.55-1.838,8.574,8.574,0,0,0-3.43-.651h-4.6V59.909h4.6a8.226,8.226,0,0,0,3.467-.69,7.073,7.073,0,0,0,2.531-1.9,8.42,8.42,0,0,0,1.553-2.857,11.424,11.424,0,0,0,.536-3.564" transform="translate(595.072 73.674)"/>
    <rect id="사각형_4" data-name="사각형 4" class="cls-6" width="1125.547" height="475.923" transform="translate(0 -23)"/>
  </g>
</svg>
