<svg xmlns="http://www.w3.org/2000/svg" xmlns:xlink="http://www.w3.org/1999/xlink" width="14.608" height="13.944" viewBox="0 0 14.608 13.944">
  <defs>
    <clipPath id="clip-path">
      <rect id="사각형_60" data-name="사각형 60" width="14.608" height="13.944" transform="translate(0 0)" fill="#b60606"/>
    </clipPath>
  </defs>
  <g id="icon_fan" transform="translate(0 0)">
    <g id="그룹_19" data-name="그룹 19" clip-path="url(#clip-path)">
      <path id="패스_27" data-name="패스 27" d="M11.408,13.944a.664.664,0,0,1-.361-.107L7.3,11.412,3.561,13.837a.664.664,0,0,1-1-.737L3.733,8.946.235,5.99A.665.665,0,0,1,.616,4.82l4.2-.3L6.7.387a.665.665,0,0,1,1.208,0L9.8,4.518l4.2.3a.665.665,0,0,1,.381,1.17l-3.5,2.956L12.047,13.1a.665.665,0,0,1-.639.844M7.3,9.957a.664.664,0,0,1,.361.107l2.625,1.7L9.481,8.9a.664.664,0,0,1,.21-.688l2.579-2.18L9.308,5.815a.666.666,0,0,1-.556-.386L7.3,2.261,5.856,5.429a.666.666,0,0,1-.556.386l-2.962.213,2.579,2.18a.664.664,0,0,1,.21.688l-.809,2.869,2.625-1.7A.664.664,0,0,1,7.3,9.957" fill="#b60606"/>
    </g>
  </g>
</svg>
