<svg xmlns="http://www.w3.org/2000/svg" width="63.829" height="34.5" viewBox="0 0 63.829 34.5">
  <g id="icon_vs" transform="translate(23.149 19.445)" fill="#b60606">
    <path d="M 32.49781799316406 13.55502033233643 L 16.95234870910645 13.55502033233643 C 13.08063888549805 13.55502033233643 10.27052879333496 10.74491119384766 10.27052879333496 6.8732008934021 L 10.27052879333496 2.401220798492432 L 10.27052879333496 0.9012207984924316 L 11.77052879333496 0.9012207984924316 L 13.30440711975098 0.9012207984924316 C 12.95009994506836 0.6823374032974243 12.62555408477783 0.4264332354068756 12.33362865447998 0.134510800242424 C 11.2161283493042 -0.9829891920089722 10.62544822692871 -2.580119132995605 10.62544822692871 -4.484219074249268 L 10.62544822692871 -11.26317882537842 C 10.62544822692871 -15.13488960266113 13.4355583190918 -17.94499969482422 17.3072681427002 -17.94499969482422 L 32.32035827636719 -17.94499969482422 C 36.19207000732422 -17.94499969482422 39.00217819213867 -15.13488960266113 39.00217819213867 -11.26317882537842 L 39.00217819213867 -7.359069347381592 L 39.00217819213867 -5.859069347381592 L 37.50217819213867 -5.859069347381592 L 36.81977462768555 -5.859069347381592 C 37.05195617675781 -5.691944122314453 37.26956558227539 -5.507201194763184 37.47145843505859 -5.305309295654297 C 38.58895874023438 -4.187808990478516 39.17963790893555 -2.590679168701172 39.17963790893555 -0.6865792274475098 L 39.17963790893555 6.8732008934021 C 39.17963790893555 10.74491119384766 36.36952972412109 13.55502033233643 32.49781799316406 13.55502033233643 Z M 20.36891937255859 4.166471004486084 L 29.08125877380371 4.166471004486084 L 29.08125877380371 1.842680811882019 L 20.36891937255859 1.842680811882019 L 20.36891937255859 2.401220798492432 L 20.36891937255859 4.166471004486084 Z M 20.72383880615234 -7.013489246368408 L 28.90379905700684 -7.013489246368408 L 28.90379905700684 -7.359069347381592 L 28.90379905700684 -8.556448936462402 L 20.72383880615234 -8.556448936462402 L 20.72383880615234 -7.013489246368408 Z M 1.186788558959961 13.55502033233643 L 0.1291785836219788 13.55502033233643 L -8.743801116943359 13.55502033233643 L -9.801411628723145 13.55502033233643 L -10.15665149688721 12.55886077880859 L -20.30735206604004 -15.90565967559814 L -21.02194213867188 -17.90950012207031 L -18.89450073242188 -17.90950012207031 L -11.08627128601074 -17.90950012207031 L -10.00098133087158 -17.90950012207031 L -9.661531448364258 -16.87865829467773 L -4.837963104248047 -2.230616092681885 C -4.659681797027588 -1.713388204574585 -4.482375621795654 -1.18165910243988 -4.307314872741699 -0.6396046280860901 C -4.132258415222168 -1.181649208068848 -3.954944372177124 -1.713404655456543 -3.776671171188354 -2.230612277984619 L 1.046898603439331 -16.87865829467773 L 1.386348605155945 -17.90950012207031 L 2.471638679504395 -17.90950012207031 L 10.27986812591553 -17.90950012207031 L 12.40730857849121 -17.90950012207031 L 11.69271850585938 -15.90566921234131 L 1.542028546333313 12.55885124206543 L 1.186788558959961 13.55502033233643 Z" stroke="none"/>
    <path d="M 32.49781799316406 12.05502033233643 C 35.55012893676758 12.05502033233643 37.67963790893555 9.925510406494141 37.67963790893555 6.8732008934021 L 37.67963790893555 -0.6865792274475098 C 37.67963790893555 -3.738889217376709 35.90503692626953 -5.513489246368408 32.85273742675781 -5.513489246368408 L 19.22383880615234 -5.513489246368408 L 19.22383880615234 -10.0564489364624 L 30.40379905700684 -10.0564489364624 L 30.40379905700684 -7.359069347381592 L 37.50217819213867 -7.359069347381592 L 37.50217819213867 -11.26317882537842 C 37.50217819213867 -14.31547927856445 35.3726692199707 -16.44499969482422 32.32035827636719 -16.44499969482422 L 17.3072681427002 -16.44499969482422 C 14.25496864318848 -16.44499969482422 12.12544822692871 -14.31547927856445 12.12544822692871 -11.26317882537842 L 12.12544822692871 -4.484219074249268 C 12.12544822692871 -1.431909203529358 13.90004825592041 0.3426807820796967 16.95234870910645 0.3426807820796967 L 30.58125877380371 0.3426807820796967 L 30.58125877380371 5.666471004486084 L 18.86891937255859 5.666471004486084 L 18.86891937255859 2.401220798492432 L 11.77052879333496 2.401220798492432 L 11.77052879333496 6.8732008934021 C 11.77052879333496 9.925510406494141 13.90004825592041 12.05502033233643 16.95234870910645 12.05502033233643 L 32.49781799316406 12.05502033233643 M 0.1291785836219788 12.05502033233643 L 10.27986812591553 -16.40950012207031 L 2.471638679504395 -16.40950012207031 L -2.355261325836182 -1.751339197158813 C -3.065101385116577 0.3071908056735992 -3.739441394805908 2.543180704116821 -4.307311534881592 4.672700881958008 C -4.875181198120117 2.543180704116821 -5.54953145980835 0.3071908056735992 -6.259371280670166 -1.751339197158813 L -11.08627128601074 -16.40950012207031 L -18.89450073242188 -16.40950012207031 L -8.743801116943359 12.05502033233643 L 0.1291785836219788 12.05502033233643 M 32.49781799316406 15.05502033233643 L 16.95234870910645 15.05502033233643 C 14.67478847503662 15.05502033233643 12.59478855133057 14.22933101654053 11.09550857543945 12.73005104064941 C 9.596219062805176 11.23076057434082 8.770528793334961 9.150760650634766 8.770528793334961 6.8732008934021 L 8.770528793334961 -0.5987792015075684 L 9.981698036193848 -0.5987792015075684 C 9.448287010192871 -1.661321401596069 9.158149719238281 -2.892545938491821 9.128057479858398 -4.248109817504883 L 2.244398593902588 15.05502033233643 L -10.85902118682861 15.05502033233643 L -23.14937210083008 -19.40950012207031 L -8.915691375732422 -19.40950012207031 L -4.307316303253174 -5.414937973022461 L 0.3010585904121399 -19.40950012207031 L 14.53473854064941 -19.40950012207031 L 14.37143898010254 -18.95157623291016 C 15.28586196899414 -19.27580642700195 16.2763614654541 -19.44499969482422 17.3072681427002 -19.44499969482422 L 32.32035827636719 -19.44499969482422 C 34.59791946411133 -19.44499969482422 36.67791748046875 -18.61930847167969 38.17720794677734 -17.12001991271973 C 39.67648696899414 -15.6207389831543 40.50217819213867 -13.54073905944824 40.50217819213867 -11.26317882537842 L 40.50217819213867 -4.359069347381592 L 39.92599487304688 -4.359069347381592 C 40.42299270629883 -3.28347373008728 40.67963790893555 -2.044941663742065 40.67963790893555 -0.6865792274475098 L 40.67963790893555 6.8732008934021 C 40.67963790893555 9.150760650634766 39.85394668579102 11.23076057434082 38.35466766357422 12.73005104064941 C 36.85537719726562 14.22933101654053 34.7753791809082 15.05502033233643 32.49781799316406 15.05502033233643 Z" stroke="none" fill="#fff"/>
  </g>
</svg>
