<svg xmlns="http://www.w3.org/2000/svg" width="220.023" height="27.455" viewBox="0 0 220.023 27.455">
  <g id="logo_white" transform="translate(0 0)">
    <path id="패스_1" data-name="패스 1" d="M9.921,5.059,7.377,19.126,4.833,5.059H0L3.154,22.866H11.6L14.754,5.059Z" transform="translate(0 -0.234)" fill="#fff"/>
    <path id="패스_2" data-name="패스 2" d="M17.3,22.866V7.425h-.763l.509-2.366h5.088V22.866Z" transform="translate(-0.766 -0.234)" fill="#fff"/>
    <path id="패스_3" data-name="패스 3" d="M37.767,15.128V20.6a1.947,1.947,0,0,1-1.323,1.717,7.9,7.9,0,0,1-3.46.648H29.322a7.9,7.9,0,0,1-3.459-.648A1.944,1.944,0,0,1,24.54,20.6V7.318A1.944,1.944,0,0,1,25.863,5.6a7.9,7.9,0,0,1,3.459-.648h3.663a7.9,7.9,0,0,1,3.46.648,1.947,1.947,0,0,1,1.323,1.717v5.7l-4.833-.255V7.447c0-.085-.085-.129-.255-.129H29.628c-.171,0-.255.044-.255.129V20.471c0,.084.084.127.255.127H32.68c.17,0,.255-.043.255-.127V15.128Z" transform="translate(-1.137 -0.23)" fill="#fff"/>
    <path id="패스_4" data-name="패스 4" d="M40.01,7.425V5.059H54V7.425h-4.58V22.866H44.589V7.425Z" transform="translate(-1.854 -0.234)" fill="#fff"/>
    <path id="패스_5" data-name="패스 5" d="M69.508,20.6a1.946,1.946,0,0,1-1.323,1.717,7.9,7.9,0,0,1-3.459.648H61.064a7.9,7.9,0,0,1-3.46-.648A1.946,1.946,0,0,1,56.281,20.6V7.318A1.946,1.946,0,0,1,57.6,5.6a7.9,7.9,0,0,1,3.46-.648h3.663a7.9,7.9,0,0,1,3.459.648,1.946,1.946,0,0,1,1.323,1.717Zm-8.14-13.28c-.171,0-.255.044-.255.128V20.471c0,.084.084.127.255.127h3.052c.17,0,.255-.043.255-.127V7.446c0-.084-.085-.128-.255-.128Z" transform="translate(-2.608 -0.23)" fill="#fff"/>
    <path id="패스_6" data-name="패스 6" d="M71.752,7.425l.508-2.366H80.3a7.9,7.9,0,0,1,3.46.648,1.948,1.948,0,0,1,1.323,1.718v7.962a1.367,1.367,0,0,1-.458,1,3.706,3.706,0,0,1-1.222.751l3.257,5.723H81.774l-2.9-5.114H77.348v5.114H72.515V7.425Zm8.242,0H77.348v7.962h2.645c.17,0,.255-.042.255-.127V7.552c0-.085-.085-.127-.255-.127" transform="translate(-3.324 -0.234)" fill="#fff"/>
    <path id="패스_7" data-name="패스 7" d="M110.049,12.014a8.878,8.878,0,0,1,1.974,1.1,6.818,6.818,0,0,1,2.645,5.831,7.512,7.512,0,0,1-2.589,5.793q-3,2.718-8.419,2.719a13.894,13.894,0,0,1-6.781-1.546A7.75,7.75,0,0,1,93.1,21.57v-.019a2.023,2.023,0,0,0-.466-.708,1.156,1.156,0,0,0-.26-.224.79.79,0,0,1-.373-.67.75.75,0,0,1,.242-.577.789.789,0,0,1,.578-.242H99a.684.684,0,0,1,.708.522,2.687,2.687,0,0,0,1.323,1.509,5.362,5.362,0,0,0,2.626.6,5.018,5.018,0,0,0,2.961-.782,2.363,2.363,0,0,0,1.1-2.03q0-2.2-4.229-2.31-4.918-.13-7.618-2.216a7.088,7.088,0,0,1-2.851-5.886A7.584,7.584,0,0,1,95.688,2.72,11.372,11.372,0,0,1,103.66,0a12.262,12.262,0,0,1,7.245,2.012,7.626,7.626,0,0,1,3.335,5.569.715.715,0,0,1-.224.521.748.748,0,0,1-.54.242h-5.514a.713.713,0,0,1-.726-.522q-.615-1.955-3.576-1.955-3.688,0-3.688,2.664a1.877,1.877,0,0,0,1.1,1.825,5.849,5.849,0,0,0,.95.335,10.243,10.243,0,0,0,1.844.279,27.81,27.81,0,0,1,6.184,1.043" transform="translate(-4.263 0)" fill="#fff"/>
    <path id="패스_8" data-name="패스 8" d="M136.172,19.167a.953.953,0,0,1,1.248.056l3.408,3.26a.9.9,0,0,1,.3.633,1.061,1.061,0,0,1-.242.689,13.691,13.691,0,0,1-18.943-.391,13.226,13.226,0,0,1-4.024-9.7,13.166,13.166,0,0,1,4.024-9.685A13.165,13.165,0,0,1,131.627,0a13.315,13.315,0,0,1,9.257,3.613,1.064,1.064,0,0,1,.242.69.9.9,0,0,1-.3.633L137.421,8.2a.953.953,0,0,1-1.248.056,6.909,6.909,0,0,0-4.545-1.639,6.827,6.827,0,0,0-5.011,2.068,6.854,6.854,0,0,0-2.086,5.029,6.855,6.855,0,0,0,2.086,5.03,6.827,6.827,0,0,0,5.011,2.068,6.909,6.909,0,0,0,4.545-1.639" transform="translate(-5.463 0)" fill="#fff"/>
    <path id="패스_9" data-name="패스 9" d="M156.061,0a13.166,13.166,0,0,1,9.685,4.023,13.164,13.164,0,0,1,4.024,9.686,13.163,13.163,0,0,1-4.024,9.685,13.669,13.669,0,0,1-19.371,0,13.163,13.163,0,0,1-4.024-9.685,13.163,13.163,0,0,1,4.024-9.686A13.162,13.162,0,0,1,156.061,0m0,20.805a6.4,6.4,0,0,0,4.806-2.087,6.988,6.988,0,0,0,1.974-5.01,7.054,7.054,0,0,0-1.974-5.03,6.618,6.618,0,0,0-9.611,0,7.054,7.054,0,0,0-1.974,5.03,6.988,6.988,0,0,0,1.974,5.01,6.4,6.4,0,0,0,4.806,2.087" transform="translate(-6.596 0)" fill="#fff"/>
    <path id="패스_10" data-name="패스 10" d="M196.643,24.986a.758.758,0,0,1,.372.67.825.825,0,0,1-.818.819h-5.439a.913.913,0,0,1-.9-.559l-4.247-8.046a.455.455,0,0,0-.446-.279h-4.024a.5.5,0,0,0-.336.131.481.481,0,0,0-.148.354v7.413a1.021,1.021,0,0,1-.988.987h-4.656a.968.968,0,0,1-.709-.3.939.939,0,0,1-.279-.69V4.105a1.892,1.892,0,0,0-.6-1.415c-.087-.087-.174-.168-.261-.242a.76.76,0,0,1-.372-.67.787.787,0,0,1,.242-.578.789.789,0,0,1,.577-.241h13.616A8.015,8.015,0,0,1,193.122,3.4a8.03,8.03,0,0,1,2.421,5.867,8.256,8.256,0,0,1-3.762,6.967l4.229,8.028a2.478,2.478,0,0,0,.354.5c.088.075.18.15.279.224m-7.6-16.3a1.6,1.6,0,0,0-.485-1.173,1.625,1.625,0,0,0-1.192-.5h-6.221a.465.465,0,0,0-.336.149.485.485,0,0,0-.148.355v3.52a.426.426,0,0,0,.148.336.465.465,0,0,0,.336.149h6.221a1.656,1.656,0,0,0,1.192-.484,1.6,1.6,0,0,0,.485-1.174Z" transform="translate(-8.006 -0.044)" fill="#fff"/>
    <path id="패스_11" data-name="패스 11" d="M207.931,7.048a.482.482,0,0,0-.354.149.422.422,0,0,0-.149.336v2.794a.421.421,0,0,0,.149.335.478.478,0,0,0,.354.149h11.66a.908.908,0,0,1,.689.3.887.887,0,0,1,.3.67v3.874a.908.908,0,0,1-.3.689.936.936,0,0,1-.689.279h-11.66a.482.482,0,0,0-.354.149.422.422,0,0,0-.149.336V19.9a.421.421,0,0,0,.149.335.478.478,0,0,0,.354.149H220a.985.985,0,0,1,.987.969v4.153a.985.985,0,0,1-.987.969H201.56a.936.936,0,0,1-.689-.279.908.908,0,0,1-.3-.69V4.105a1.955,1.955,0,0,0-.6-1.434,2.083,2.083,0,0,0-.26-.223.8.8,0,0,1-.131-1.248.789.789,0,0,1,.577-.242H220a.938.938,0,0,1,.689.279.91.91,0,0,1,.3.69V6.079a.985.985,0,0,1-.987.969Z" transform="translate(-9.236 -0.044)" fill="#fff"/>
    <path id="패스_12" data-name="패스 12" d="M0,0H6.092V6.092H0Z" transform="translate(213.931 10.681)" fill="#b60606"/>
  </g>
</svg>
