<svg xmlns="http://www.w3.org/2000/svg" width="161.553" height="20.159" viewBox="0 0 161.553 20.159">
  <g id="logo" transform="translate(0 0)">
    <path id="패스_1" data-name="패스 1" d="M7.285,5.059,5.416,15.388,3.549,5.059H0L2.316,18.134h6.2L10.833,5.059Z" transform="translate(0 -1.516)" fill="#231f20"/>
    <path id="패스_2" data-name="패스 2" d="M17.1,18.134V6.8h-.56l.374-1.737h3.736V18.134Z" transform="translate(-4.957 -1.516)" fill="#231f20"/>
    <path id="패스_3" data-name="패스 3" d="M34.252,12.424V16.44a1.43,1.43,0,0,1-.971,1.26,5.8,5.8,0,0,1-2.54.476h-2.69a5.8,5.8,0,0,1-2.54-.476,1.428,1.428,0,0,1-.971-1.26V6.69a1.428,1.428,0,0,1,.971-1.26,5.8,5.8,0,0,1,2.54-.476h2.69a5.8,5.8,0,0,1,2.54.476,1.43,1.43,0,0,1,.971,1.26v4.185L30.7,10.687v-3.9c0-.062-.062-.095-.187-.095H28.276c-.125,0-.187.032-.187.095v9.563c0,.062.062.093.187.093h2.241c.125,0,.187-.032.187-.093V12.424Z" transform="translate(-7.356 -1.485)" fill="#231f20"/>
    <path id="패스_4" data-name="패스 4" d="M40.01,6.8V5.059H50.283V6.8H46.921V18.134H43.372V6.8Z" transform="translate(-11.994 -1.517)" fill="#231f20"/>
    <path id="패스_5" data-name="패스 5" d="M65.993,16.44a1.429,1.429,0,0,1-.971,1.26,5.8,5.8,0,0,1-2.54.476h-2.69a5.8,5.8,0,0,1-2.54-.476,1.429,1.429,0,0,1-.971-1.26V6.69a1.429,1.429,0,0,1,.971-1.26,5.8,5.8,0,0,1,2.54-.476h2.69a5.8,5.8,0,0,1,2.54.476,1.429,1.429,0,0,1,.971,1.26ZM60.017,6.69c-.125,0-.187.032-.187.094v9.564c0,.062.062.093.187.093h2.241c.125,0,.187-.032.187-.093V6.783c0-.062-.062-.094-.187-.094Z" transform="translate(-16.871 -1.485)" fill="#231f20"/>
    <path id="패스_6" data-name="패스 6" d="M71.752,6.8l.373-1.737h5.9a5.8,5.8,0,0,1,2.54.476A1.431,1.431,0,0,1,81.539,6.8v5.846a1,1,0,0,1-.336.737,2.721,2.721,0,0,1-.9.552l2.391,4.2H79.111l-2.129-3.755H75.861v3.755H72.312V6.8Zm6.051,0H75.861v5.846H77.8c.125,0,.187-.031.187-.093V6.889c0-.062-.062-.093-.187-.093" transform="translate(-21.509 -1.516)" fill="#231f20"/>
    <path id="패스_7" data-name="패스 7" d="M105.253,8.822a6.518,6.518,0,0,1,1.449.807,5.006,5.006,0,0,1,1.942,4.281,5.516,5.516,0,0,1-1.9,4.253,8.879,8.879,0,0,1-6.182,2,10.2,10.2,0,0,1-4.979-1.135,5.691,5.691,0,0,1-2.776-3.186v-.014a1.485,1.485,0,0,0-.342-.52.848.848,0,0,0-.191-.165A.58.58,0,0,1,92,14.648a.551.551,0,0,1,.178-.424.579.579,0,0,1,.424-.178h4.54a.5.5,0,0,1,.52.383,1.973,1.973,0,0,0,.971,1.108,3.937,3.937,0,0,0,1.928.438,3.685,3.685,0,0,0,2.174-.574,1.735,1.735,0,0,0,.807-1.491q0-1.614-3.1-1.7a9.394,9.394,0,0,1-5.593-1.627,5.2,5.2,0,0,1-2.093-4.322A5.568,5.568,0,0,1,94.708,2a8.35,8.35,0,0,1,5.854-2,9,9,0,0,1,5.32,1.477,5.6,5.6,0,0,1,2.449,4.089.525.525,0,0,1-.165.382.55.55,0,0,1-.4.178h-4.049a.523.523,0,0,1-.533-.383q-.452-1.436-2.626-1.435-2.708,0-2.708,1.956a1.378,1.378,0,0,0,.807,1.34,4.294,4.294,0,0,0,.7.246,7.521,7.521,0,0,0,1.354.205,20.42,20.42,0,0,1,4.54.766" transform="translate(-27.578 0)"/>
    <path id="패스_8" data-name="패스 8" d="M131.321,14.073a.7.7,0,0,1,.917.041l2.5,2.393a.659.659,0,0,1,.218.465.779.779,0,0,1-.178.506,10.052,10.052,0,0,1-13.909-.287,9.711,9.711,0,0,1-2.954-7.126,9.668,9.668,0,0,1,2.954-7.112A9.666,9.666,0,0,1,127.984,0a9.777,9.777,0,0,1,6.8,2.653.781.781,0,0,1,.178.506.659.659,0,0,1-.218.465l-2.5,2.393a.7.7,0,0,1-.917.041,5.073,5.073,0,0,0-3.337-1.2A5.012,5.012,0,0,0,124.3,6.374a5.033,5.033,0,0,0-1.531,3.692,5.033,5.033,0,0,0,1.531,3.693,5.012,5.012,0,0,0,3.679,1.518,5.073,5.073,0,0,0,3.337-1.2" transform="translate(-35.348 0)"/>
    <path id="패스_9" data-name="패스 9" d="M152.418,0a9.667,9.667,0,0,1,7.112,2.954,9.665,9.665,0,0,1,2.954,7.112,9.665,9.665,0,0,1-2.954,7.112,10.037,10.037,0,0,1-14.223,0,9.665,9.665,0,0,1-2.954-7.112,9.665,9.665,0,0,1,2.954-7.112A9.665,9.665,0,0,1,152.418,0m0,15.276a4.7,4.7,0,0,0,3.528-1.532,5.131,5.131,0,0,0,1.449-3.678,5.18,5.18,0,0,0-1.449-3.693,4.86,4.86,0,0,0-7.057,0,5.18,5.18,0,0,0-1.449,3.693,5.131,5.131,0,0,0,1.449,3.678,4.7,4.7,0,0,0,3.528,1.532" transform="translate(-42.672 0)"/>
    <path id="패스_10" data-name="패스 10" d="M190.307,18.6a.557.557,0,0,1,.273.492.606.606,0,0,1-.6.6h-3.993a.67.67,0,0,1-.658-.41l-3.118-5.908a.334.334,0,0,0-.328-.205h-2.954a.366.366,0,0,0-.246.1.353.353,0,0,0-.109.26v5.443a.75.75,0,0,1-.725.725h-3.419a.711.711,0,0,1-.52-.218.689.689,0,0,1-.205-.506V3.269a1.389,1.389,0,0,0-.438-1.039c-.064-.064-.127-.123-.192-.178a.558.558,0,0,1-.273-.492.606.606,0,0,1,.6-.6h10a5.885,5.885,0,0,1,4.321,1.791A5.9,5.9,0,0,1,189.5,7.057a6.062,6.062,0,0,1-2.762,5.115l3.1,5.895a1.819,1.819,0,0,0,.26.369c.064.055.132.11.205.165M184.727,6.633a1.173,1.173,0,0,0-.356-.861,1.193,1.193,0,0,0-.875-.37h-4.568a.341.341,0,0,0-.246.109.356.356,0,0,0-.109.26V8.357a.313.313,0,0,0,.109.246.341.341,0,0,0,.246.109H183.5a1.216,1.216,0,0,0,.875-.356,1.174,1.174,0,0,0,.356-.862Z" transform="translate(-51.8 -0.287)"/>
    <path id="패스_11" data-name="패스 11" d="M205.649,5.429a.354.354,0,0,0-.26.109.31.31,0,0,0-.109.246V7.837a.309.309,0,0,0,.109.246.351.351,0,0,0,.26.109h8.562a.666.666,0,0,1,.506.219.651.651,0,0,1,.219.492v2.844a.667.667,0,0,1-.219.506.688.688,0,0,1-.506.205h-8.562a.354.354,0,0,0-.26.109.31.31,0,0,0-.109.246v2.052a.309.309,0,0,0,.109.246.351.351,0,0,0,.26.109h8.862a.723.723,0,0,1,.725.711v3.05a.723.723,0,0,1-.725.711h-13.54a.688.688,0,0,1-.506-.205.667.667,0,0,1-.219-.506V3.268a1.435,1.435,0,0,0-.438-1.053,1.529,1.529,0,0,0-.191-.164.586.586,0,0,1-.1-.917.579.579,0,0,1,.424-.178h14.566a.689.689,0,0,1,.506.205.668.668,0,0,1,.218.506v3.05a.723.723,0,0,1-.725.711Z" transform="translate(-59.756 -0.287)"/>
    <path id="패스_12" data-name="패스 12" d="M0,0H4.473V4.473H0Z" transform="translate(157.08 7.843)" fill="#b60606"/>
  </g>
</svg>
